<?xml version="1.0" encoding="utf-8"?>
<!-- Generator: Adobe Illustrator 23.0.1, SVG Export Plug-In . SVG Version: 6.00 Build 0)  -->
<svg version="1.1" id="Layer_1" xmlns="http://www.w3.org/2000/svg" xmlns:xlink="http://www.w3.org/1999/xlink" x="0px" y="0px"
	 viewBox="0 0 300 300" style="enable-background:new 0 0 300 300;" xml:space="preserve">
<style type="text/css">
	.st0{fill:#FBB116;}
	.st1{fill:#221E1F;}
	.st2{fill-rule:evenodd;clip-rule:evenodd;fill:#DF2128;}
	.st3{fill-rule:evenodd;clip-rule:evenodd;fill:#F9ED36;}
	.st4{fill:#F9ED36;}
	.st5{fill:#773072;}
	.st6{fill:#124B8E;}
	.st7{fill:#BC2025;}
	.st8{fill:#E25C25;}
</style>
<rect x="20.8" y="69.43" class="st0" width="259.04" height="162.28"/>
<path class="st1" d="M279.85,107.79H147.66c0,0-2.72-0.26-5.39,1.55c-2.67,1.81-57.05,46.29-57.05,46.29s-2.75,2.58,0,5.08
	c2.75,2.5,54.12,43.02,54.12,43.02s2.17,1.89,8.31,1.89c6.14,0,132.19,0,132.19,0V107.79z"/>
<path class="st1" d="M113.44,112.86c0,0,1.03-1.46,0.52-2.75c-0.52-1.29-1.2-1.55-2.5-1.55s-33.04,0-33.04,0s-7.57-0.09-7.74,8
	c-0.17,8.09,0,82.6,0,82.6s-1.01,6.45,7.57,6.45h33.3c0,0,1.94-0.26,2.07-1.61c0.13-1.36-0.19-1.87-1.36-3.61
	c-1.16-1.74-31.68-40.17-31.68-40.17s-0.97-1.87,0.06-3.48C81.67,155.12,113.44,112.86,113.44,112.86z"/>
<polygon class="st2" points="246.14,88.02 251.26,82.01 258.91,82.01 251.74,90.75 260.21,102.98 252.49,102.98 246.14,93.21 
	246.14,102.98 238.49,102.98 238.49,74.36 246.14,74.36 246.14,88.02 "/>
<polygon class="st2" points="151.86,86.24 161.7,74.36 170.31,74.36 158.83,88.22 169.15,102.98 160.88,102.98 151.86,90.07 
	151.86,102.98 144.28,102.98 144.28,74.36 151.86,74.36 151.86,86.24 "/>
<path class="st2" d="M205.7,74.36v8.68c-1.3-0.82-2.94-1.23-5.06-1.23c-6.97,0-9.02,4.85-9.02,10.86c0,5.94,2.46,10.79,9.02,10.79
	c2.05,0,3.76-0.48,5.06-1.3v0.82h7.38V74.36H205.7z M202.49,98.88c-2.73,0-3.28-2.8-3.28-6.22c0-3.48,0.2-6.28,3.28-6.28
	c3.14,0,3.42,2.8,3.42,6.28C205.9,96.08,205.35,98.88,202.49,98.88z"/>
<path class="st2" d="M179.33,81.8c-8.54,0-10.93,4.85-10.93,10.86c0,5.94,2.94,10.79,10.93,10.79c7.99,0,10.93-4.85,10.93-10.79
	C190.26,86.65,187.87,81.8,179.33,81.8z M179.33,98.88c-2.8,0-3.35-2.8-3.35-6.22c0-3.48,0.2-6.28,3.35-6.28
	c3.14,0,3.42,2.8,3.42,6.28C182.74,96.08,182.2,98.88,179.33,98.88z"/>
<path class="st2" d="M228.86,82.08h-11.82v5.94h5.94c0.21-2.05,1.43-2.32,2.87-2.32c1.02,0,2.53,0.41,2.46,1.5
	c-0.07,1.57-1.16,2.05-3.96,2.66c-3.69,0.89-9.15,1.5-8.95,7.24c0.14,3.28,4.03,6.29,7.92,6.29c1.84,0,4.37-1.09,5.26-2.32
	l1.78,1.91h4.85V89.59C235.21,86.31,234.73,82.08,228.86,82.08z M228.58,95.12c0,2.12-1.84,4.17-3.69,4.17
	c-1.57,0-2.73-1.57-2.66-2.87c0-3.01,2.66-4.37,6.35-4.37V95.12z"/>
<g>
	<path class="st3" d="M193.68,117.32h5.73v29.46h-5.73V117.32z M220.25,129.95c-1.37-1.67-3.44-2.73-5.73-2.73
		c-4.08,0-7.4,3.32-7.4,7.38s3.32,7.4,7.4,7.4c1.1,0,2.19-0.26,3.14-0.69v5.51c-1.02,0.25-2.07,0.38-3.12,0.38
		c-6.94,0-12.61-5.68-12.61-12.6c0-6.92,5.68-12.59,12.61-12.59c2.06,0,4,0.49,5.7,1.35v-6.04h5.73v29.46h-5.73V129.95
		L220.25,129.95z M173,130.9h-13.46v5.78h7.7v2.23c-1.81,1.9-4.32,3.04-7.13,3.04c-5.44,0-9.88-4.46-9.88-9.88
		c0-5.42,4.45-9.87,9.88-9.87c2.79,0,5.32,1.17,7.13,3.04v-6.52c-2.14-1.12-4.58-1.79-7.11-1.79c-8.35,0-15.18,6.83-15.18,15.13
		c0,8.36,6.83,15.17,15.18,15.17c3.68,0,7.05-1.32,9.68-3.51c2.27,2.18,5.32,3.51,8.7,3.51c6.96,0,12.6-5.68,12.6-12.6
		c0-6.92-5.64-12.59-12.6-12.59c-4.67,0-8.76,2.58-10.95,6.37h6.95c1.18-0.76,2.56-1.17,3.97-1.17c4.08,0,7.4,3.32,7.4,7.38
		s-3.32,7.4-7.4,7.4c-2.17,0-4.13-0.95-5.49-2.45V130.9z"/>
</g>
<path class="st4" d="M279.85,152.62c0,0-182.24,0-184.13,0c-1.89,0-2.32,0.43-2.32,0.43s-2.15,1.87-4.06,3.58h190.52V152.62z"/>
<path class="st5" d="M112.24,179.69h167.6v-10.62H98.77C102.75,172.21,107.44,175.91,112.24,179.69z"/>
<path class="st6" d="M87.67,158.17c-1.43,1.59,0.05,2.19,0.05,2.19s3.68,2.9,9.1,7.18h183.03v-9.36H87.67z"/>
<path class="st7" d="M127.04,191.32h152.8V181.1H114.03C118.52,184.63,123.02,188.17,127.04,191.32z"/>
<path class="st8" d="M141.32,202.43c1.81,1.2,4.65,1.29,4.65,1.29l133.88-0.52v-10.34H129.01
	C135.77,198.17,140.78,202.07,141.32,202.43z"/>
<path class="st8" d="M72.4,199.38c0,4.39,4.13,4.35,4.13,4.35s30.42-0.04,32.91,0c2.5,0.04,0.56-2.02,0.56-2.02
	s-2.81-3.68-6.76-8.84H72.4C72.4,196.11,72.4,198.49,72.4,199.38z"/>
<path class="st5" d="M85.08,169.07H72.4c0,3.39,0,7.05,0,10.62h20.78C90.31,175.92,87.48,172.22,85.08,169.07z"/>
<path class="st6" d="M78.54,160.45c-0.75-1.04-1.07-1.78-1.21-2.27H72.4c0,2.41,0,5.69,0,9.36h11.51
	C81,163.71,78.92,160.97,78.54,160.45z"/>
<path class="st7" d="M94.26,181.1H72.4c0,3.7,0,7.24,0,10.23h29.67C99.68,188.2,96.97,184.65,94.26,181.1z"/>
<path class="st4" d="M79.54,153.73c0.86-1.25-0.56-1.12-0.56-1.12s-4.3,0.04-5.42,0c-1.12-0.04-1.16,1.42-1.16,1.42s0,0.96,0,2.59
	h5.32C78.21,155.81,78.99,154.53,79.54,153.73z"/>
<g>
	<path d="M227.02,223.99v3.35h-12.64c0.14-1.27,0.55-2.47,1.23-3.6c0.68-1.13,2.04-2.64,4.06-4.51c1.63-1.51,2.62-2.54,2.99-3.08
		c0.5-0.74,0.74-1.48,0.74-2.21c0-0.8-0.22-1.42-0.65-1.85c-0.43-0.43-1.03-0.65-1.79-0.65c-0.75,0-1.35,0.23-1.8,0.68
		c-0.44,0.45-0.7,1.21-0.77,2.26l-3.59-0.36c0.21-1.99,0.89-3.41,2.02-4.27c1.13-0.86,2.54-1.3,4.23-1.3c1.86,0,3.32,0.5,4.38,1.5
		c1.06,1,1.59,2.25,1.59,3.73c0,0.85-0.15,1.65-0.46,2.42c-0.3,0.77-0.79,1.57-1.44,2.41c-0.44,0.56-1.22,1.36-2.36,2.4
		c-1.14,1.04-1.86,1.74-2.16,2.08c-0.3,0.34-0.55,0.68-0.74,1H227.02z"/>
	<path d="M236.53,227.34v-3.79h-7.7v-3.16l8.16-11.95h3.03v11.94h2.34v3.17h-2.34v3.79H236.53z M236.53,220.38v-6.43l-4.33,6.43
		H236.53z"/>
</g>
<g>
	<path d="M246.62,219.93v-5.79h4.29v0.98h-3.12v1.28h2.91v0.98h-2.91v1.58h3.23v0.98H246.62z"/>
	<path d="M251.5,219.93l1.98-3.02l-1.79-2.77h1.37l1.16,1.86l1.14-1.86h1.35l-1.8,2.81l1.98,2.98h-1.41l-1.28-2l-1.29,2H251.5z"/>
	<path d="M257.56,219.93v-5.79h1.88c0.71,0,1.17,0.03,1.39,0.09c0.33,0.09,0.61,0.28,0.83,0.57c0.22,0.29,0.34,0.67,0.34,1.13
		c0,0.36-0.06,0.65-0.19,0.9c-0.13,0.24-0.29,0.43-0.49,0.57c-0.2,0.14-0.4,0.23-0.61,0.27c-0.28,0.06-0.68,0.08-1.21,0.08h-0.76
		v2.18H257.56z M258.72,215.12v1.64h0.64c0.46,0,0.77-0.03,0.92-0.09c0.16-0.06,0.28-0.16,0.37-0.28c0.09-0.13,0.13-0.28,0.13-0.45
		c0-0.21-0.06-0.38-0.19-0.52c-0.12-0.14-0.28-0.22-0.47-0.26c-0.14-0.03-0.42-0.04-0.84-0.04H258.72z"/>
	<path d="M261.97,219.93v-1.11h1.11v1.11H261.97z"/>
	<path d="M246.63,226.67v-5.79h3.97v0.98h-2.8v1.37h2.42v0.98h-2.42v2.46H246.63z"/>
	<path d="M251.43,226.67v-5.79h1.17v5.79H251.43z"/>
	<path d="M253.65,226.67v-5.74h1.17v4.77h2.91v0.98H253.65z"/>
	<path d="M258.44,226.67v-5.79h1.75l1.05,3.95l1.04-3.95h1.75v5.79h-1.09v-4.56l-1.15,4.56h-1.13l-1.15-4.56v4.56H258.44z"/>
</g>
<path class="st5" d="M60.72,198.68c0-5.39,0-10.79,0-16.21c1.09,0,2.15,0,3.23,0c0,7.08,0,14.15,0,21.27
	c-0.59,0-1.18-0.07-1.75,0.01c-1.08,0.16-1.78-0.29-2.49-1.09c-4.42-4.9-8.91-9.74-13.36-14.62c-1.49-1.63-3.24-2.8-5.44-3.17
	c-4.44-0.76-9.13,1.8-9.83,7.06c-0.55,4.17,1.97,8.06,6.02,9.21c0.73,0.21,1.48,0.33,2.28,0.5c-0.07,1.04-0.15,2.13-0.23,3.32
	c-0.83-0.12-1.64-0.18-2.41-0.36c-4.72-1.1-8.1-4.91-8.69-9.72c-0.4-3.2,0.15-6.2,2-8.89c1.86-2.69,4.46-4.22,7.69-4.71
	c3.53-0.53,6.55,0.64,9.2,2.86c1.26,1.06,2.37,2.3,3.5,3.5c3.35,3.59,6.67,7.21,10,10.82c0.07,0.08,0.13,0.18,0.19,0.27
	C60.64,198.73,60.68,198.7,60.72,198.68z"/>
<path class="st5" d="M47.28,144.59c9.92-0.02,17.98,8.03,18.01,17.98c0.03,9.94-8.02,18.03-17.96,18.07
	c-9.94,0.03-18.08-8.09-18.08-18.04C29.25,152.67,37.32,144.61,47.28,144.59z M62.15,162.6c0.03-8.16-6.6-14.81-14.8-14.87
	c-8.23-0.05-14.92,6.58-14.95,14.82c-0.03,8.22,6.64,14.91,14.89,14.94C55.45,177.51,62.12,170.84,62.15,162.6z"/>
<path class="st5" d="M47.3,109.52c9.96,0.02,18.02,8.09,17.99,18.03c-0.03,9.96-8.1,18.03-18.02,18.02
	c-9.95-0.02-18.07-8.16-18.03-18.06C29.29,117.55,37.37,109.51,47.3,109.52z M62.15,127.53c0.01-8.18-6.64-14.84-14.85-14.86
	c-8.23-0.02-14.89,6.6-14.91,14.82c-0.03,8.23,6.66,14.92,14.9,14.93C55.47,142.43,62.14,135.75,62.15,127.53z"/>
</svg>
